<svg width="40" height="40" viewBox="0 0 40 40" fill="none" xmlns="http://www.w3.org/2000/svg">
<path fill-rule="evenodd" clip-rule="evenodd" d="M19.3936 1.50501C19.3936 11.3846 11.3846 19.3936 1.50502 19.3936C0.998143 19.3936 0.496195 19.3725 1.09706e-07 19.3312C0.345474 8.81109 8.81109 0.345473 19.3312 0C19.3725 0.496195 19.3936 0.998143 19.3936 1.50501ZM20.6688 1.09719e-07C20.6275 0.496195 20.6064 0.998143 20.6064 1.50501C20.6064 11.3846 28.6154 19.3936 38.495 19.3936C39.0019 19.3936 39.5038 19.3725 40 19.3312C39.6545 8.81109 31.1889 0.345475 20.6688 1.09719e-07ZM40 20.6688C39.5038 20.6275 39.0019 20.6064 38.495 20.6064C28.6154 20.6064 20.6064 28.6154 20.6064 38.495C20.6064 39.0019 20.6275 39.5038 20.6688 40C31.1889 39.6545 39.6545 31.1889 40 20.6688ZM19.3312 40C19.3725 39.5038 19.3936 39.0019 19.3936 38.495C19.3936 28.6154 11.3846 20.6064 1.50502 20.6064C0.998143 20.6064 0.496195 20.6275 0 20.6688C0.345472 31.1889 8.81109 39.6545 19.3312 40Z" fill="#4278E7"/>
</svg>
