<svg width="90" height="90" viewBox="0 0 90 90" fill="none" xmlns="http://www.w3.org/2000/svg">
    <path fill-rule="evenodd" clip-rule="evenodd" d="M43.164 3.34968C43.164 25.3385 25.3385 43.164 3.34968 43.164C2.22155 43.164 1.10437 43.1171 2.4417e-07 43.0251C0.768915 19.6107 19.6107 0.768913 43.0251 0C43.1171 1.10437 43.164 2.22155 43.164 3.34968ZM46.0022 2.442e-07C45.9102 1.10437 45.8633 2.22155 45.8633 3.34968C45.8633 25.3385 63.6887 43.164 85.6776 43.164C86.8057 43.164 87.9229 43.1171 89.0272 43.0251C88.2583 19.6107 69.4166 0.768916 46.0022 2.442e-07ZM89.0272 46.0022C87.9229 45.9102 86.8057 45.8633 85.6776 45.8633C63.6887 45.8633 45.8633 63.6887 45.8633 85.6776C45.8633 86.8057 45.9102 87.9229 46.0022 89.0272C69.4166 88.2583 88.2583 69.4166 89.0272 46.0022ZM43.0251 89.0272C43.1171 87.9229 43.164 86.8057 43.164 85.6776C43.164 63.6887 25.3385 45.8633 3.34968 45.8633C2.22155 45.8633 1.10437 45.9102 0 46.0022C0.768911 69.4166 19.6107 88.2583 43.0251 89.0272Z" fill="#4278E7"/>
</svg>
